<svg width="100" height="100" viewBox="0 0 100 100" xmlns="http://www.w3.org/2000/svg">
  <rect width="100" height="100" fill="#f0fdf4"/>
  <circle cx="50" cy="50" r="40" fill="#bbf7d0"/>
  <path d="M50 30 C 65 30 75 45 75 60 C 75 75 65 85 50 85 C 35 85 25 75 25 60 C 25 45 35 30 50 30" fill="#ffedd5"/>
  <path d="M35 55 A 5 5 0 0 1 45 55" stroke="#374151" stroke-width="3" stroke-linecap="round" fill="none"/>
  <path d="M55 55 A 5 5 0 0 1 65 55" stroke="#374151" stroke-width="3" stroke-linecap="round" fill="none"/>
  <path d="M45 70 Q 50 75 55 70" stroke="#374151" stroke-width="3" stroke-linecap="round" fill="none"/>
  <path d="M30 35 C 30 20 70 20 70 35 L 70 40 L 30 40 Z" fill="#15803d"/>
  <path d="M50 20 L 55 35 L 45 35 Z" fill="#15803d"/>
</svg>
