<svg width="100" height="100" viewBox="0 0 100 100" xmlns="http://www.w3.org/2000/svg">
  <rect width="100" height="100" fill="#fdf2f8"/>
  <circle cx="50" cy="50" r="40" fill="#fbcfe8"/>
  <path d="M50 30 C 65 30 75 45 75 60 C 75 75 65 85 50 85 C 35 85 25 75 25 60 C 25 45 35 30 50 30" fill="#ffedd5"/>
  <path d="M35 55 A 5 5 0 0 1 45 55" stroke="#374151" stroke-width="3" stroke-linecap="round" fill="none"/>
  <path d="M55 55 A 5 5 0 0 1 65 55" stroke="#374151" stroke-width="3" stroke-linecap="round" fill="none"/>
  <path d="M45 70 Q 50 75 55 70" stroke="#374151" stroke-width="3" stroke-linecap="round" fill="none"/>
  <path d="M25 35 C 25 15 75 15 75 35 L 80 60 L 20 60 Z" fill="#db2777"/>
  <circle cx="25" cy="40" r="5" fill="#f472b6"/>
  <circle cx="75" cy="40" r="5" fill="#f472b6"/>
</svg>
